<svg xmlns="http://www.w3.org/2000/svg" xmlns:svg="http://www.w3.org/2000/svg" id="svg2" width="24" height="24" fill="#fff" version="1.1" viewBox="0 0 24 24"><metadata id="metadata12"/><path id="path4" fill="none" d="M0 0h24v24H0z"/><path id="path6" d="M 6 2 C 4.9 2 4 2.9 4 4 L 4 20 C 4 21.1 4.9 22 6 22 L 18 22 C 19.1 22 20 21.1 20 20 L 20 4 C 20 2.9 19.1 2 18 2 L 6 2 z M 6 4 L 11 4 L 11 10 L 6 10 L 6 4 z M 12 4 L 18 4 L 18 7 L 12 7 L 12 4 z M 12 8 L 18 8 L 18 10 L 12 10 L 12 8 z M 6 11 L 18 11 L 18 15 L 6 15 L 6 11 z M 6 16 L 14 16 L 14 20 L 6 20 L 6 16 z M 15 16 L 18 16 L 18 20 L 15 20 L 15 16 z"/></svg>