<svg xmlns="http://www.w3.org/2000/svg" xmlns:svg="http://www.w3.org/2000/svg" xmlns:xlink="http://www.w3.org/1999/xlink" id="svg8" width="68" height="68" version="1.1" viewBox="0 0 17.992 17.992"><defs id="defs2"><linearGradient id="linearGradient925"><stop style="stop-color:#000010;stop-opacity:1" id="stop921" offset="0"/><stop style="stop-color:#000010;stop-opacity:0" id="stop923" offset="1"/></linearGradient><linearGradient id="linearGradient927" x1="-.406" x2="17.34" y1="288.533" y2="288.533" gradientTransform="translate(-296.47085,-279.5375)" gradientUnits="userSpaceOnUse" xlink:href="#linearGradient925"/><filter style="color-interpolation-filters:sRGB" id="filter4855" width="1.072" height="1.072" x="-.036" y="-.036"><feGaussianBlur id="feGaussianBlur4857" stdDeviation=".254"/></filter><filter style="color-interpolation-filters:sRGB" id="filter4889" width="1.01" height="1.01" x="-.005" y="-.005"><feGaussianBlur id="feGaussianBlur4891" stdDeviation=".034"/></filter><filter style="color-interpolation-filters:sRGB" id="filter835" width="1.011" height="1.013" x="-.006" y="-.006"><feGaussianBlur id="feGaussianBlur837" stdDeviation=".093"/></filter></defs><metadata id="metadata5"/><g id="layer1" transform="translate(0,-279.00832)"><circle style="opacity:.25;fill:#000;fill-opacity:.83657586;fill-rule:evenodd;stroke:none;stroke-width:.13229166;stroke-miterlimit:4;stroke-dasharray:none;stroke-opacity:1;filter:url(#filter4855)" id="path825-6" cx="-287.607" cy="9.525" r="8.467" transform="rotate(-90,0,0.52916679)"/><circle id="circle4859" cx="-287.475" cy="9.525" r="8.467" transform="rotate(-90,5.7280946e-6,0.52911955)" style="opacity:.6;fill:#000;fill-opacity:.83657586;fill-rule:evenodd;stroke:none;stroke-width:.13229166;stroke-miterlimit:4;stroke-dasharray:none;stroke-opacity:1;filter:url(#filter4889)"/><path style="fill:#da4336;fill-opacity:1;fill-rule:evenodd;stroke:none;stroke-width:.13229166;stroke-miterlimit:4;stroke-dasharray:none;stroke-opacity:1" id="path825" d="m 8.9958332,280.06665 a 7.9374999,7.9374999 0 0 0 -7.9374999,7.9375 7.9374999,7.9374999 0 0 0 7.9374999,7.9375 7.9374999,7.9374999 0 0 0 7.9374998,-7.9375 7.9374999,7.9374999 0 0 0 -7.9374998,-7.9375 z"/><path style="fill:#fffff6;fill-opacity:1;stroke:none;stroke-width:.26458332" id="Sin nombre" d="m 11.989233,282.81942 -3.5779529,0.95871 0.9587089,3.57795 3.577953,-0.95871 z m 1.232626,4.60022 -5.8780641,1.57503 0.3423961,1.27784 5.878064,-1.57503 z m 0.616312,2.30011 -5.8780633,1.57503 0.3423961,1.27784 5.8780642,-1.57503 z m -6.4491592,-5.6677 -1.2778426,0.34239 0.9587089,3.57795 1.2778426,-0.34239 z m -2.3001109,0.61631 -1.2778426,0.3424 0.9587089,3.57795 1.2778426,-0.3424 z m 1.2326257,4.60022 -1.2778426,0.3424 0.9587089,3.57795 1.2778426,-0.3424 z"/><path style="display:inline;opacity:.2;fill:#000002;fill-opacity:1;stroke:none;stroke-width:.99999994;filter:url(#filter835)" id="path4920" d="m 33.884766,20.380859 -0.0957,0.02539 3.625,13.523438 13.521485,-3.623047 -0.09375,-0.353516 -13.427735,3.597656 z m -8.69336,2.330079 -0.0957,0.02539 3.625,13.521484 4.828125,-1.292968 -0.09375,-0.353516 -4.734375,1.269531 z m -8.693359,2.328124 -0.0957,0.02539 3.625,13.523438 4.828125,-1.292969 -0.09375,-0.353516 -4.734375,1.267578 z m 36.671875,13.607422 -22.119141,5.927735 -1.199219,-4.476563 -0.0957,0.02539 1.292969,4.828125 L 53.265625,39 Z m -32.013672,3.779297 -0.09375,0.02539 3.623047,13.523437 4.830078,-1.292968 -0.0957,-0.353516 -4.734375,1.267578 z M 55.5,47.339844 l -22.121094,5.927734 -1.199218,-4.476562 -0.0957,0.02539 1.294922,4.828125 22.216797,-5.951172 z" transform="matrix(0.26458333,0,0,0.26458333,-0.52916282,278.47916)"/><path style="opacity:1;fill:#fff;fill-opacity:1;fill-rule:evenodd;stroke:none;stroke-width:.13229166;stroke-miterlimit:4;stroke-dasharray:none;stroke-opacity:1" id="path956" d="m 8.9958333,279.53749 a 8.466666,8.466666 0 0 0 -8.46666663,8.46667 8.466666,8.466666 0 0 0 8.46666663,8.46666 8.466666,8.466666 0 0 0 8.4666657,-8.46666 8.466666,8.466666 0 0 0 -8.4666657,-8.46667 z m 0,1.05833 a 7.4083332,7.4083332 0 0 1 7.4083327,7.40834 7.4083332,7.4083332 0 0 1 -7.4083327,7.40833 7.4083332,7.4083332 0 0 1 -7.4083332,-7.40833 7.4083332,7.4083332 0 0 1 7.4083332,-7.40834 z"/><circle id="circle4689" cx="-288.004" cy="8.996" r="8.467" transform="rotate(-90)" style="display:inline;opacity:.1;fill:url(#linearGradient927);fill-opacity:1;fill-rule:evenodd;stroke:none;stroke-width:.13229166;stroke-miterlimit:4;stroke-dasharray:none;stroke-opacity:1"/></g></svg>